<svg width="488" height="488" viewBox="0 0 488 488" fill="none" xmlns="http://www.w3.org/2000/svg">
  <style>
    @media (prefers-color-scheme: dark) {
      #shield path {
        fill: white;
      }
    }
  </style>
  <g id="shield">
    <path
      d="M131.32 159.09C133.253 159.09 134.82 157.522 134.82 155.59V135.067C134.82 133.215 135.611 131.443 136.99 130.206L152.268 116.502C153.707 115.211 153.827 112.998 152.536 111.56C151.245 110.121 149.032 110.001 147.594 111.291L132.316 124.995C129.458 127.558 127.82 131.229 127.82 135.067V155.59C127.82 157.522 129.387 159.09 131.32 159.09Z"
      fill="black" />
    <path
      d="M177.42 93.9414L202.574 71.3799C204.013 70.0889 204.133 67.876 202.842 66.4375C201.551 64.999 199.338 64.8789 197.9 66.1689L172.747 88.7305C171.308 90.0215 171.187 92.2344 172.478 93.6728C173.169 94.4434 174.125 94.8359 175.084 94.8359C175.917 94.8359 176.752 94.541 177.42 93.9414Z"
      fill="black" />
    <path
      d="M227.727 48.8184L239.64 38.1328C242.126 35.9023 245.874 35.9023 248.36 38.1328L260.273 48.8184C260.942 49.418 261.777 49.7129 262.609 49.7129C263.569 49.7129 264.524 49.3203 265.216 48.5498C266.506 47.1113 266.386 44.8984 264.947 43.6074L253.034 32.9219C247.885 28.3018 240.117 28.3018 234.966 32.9219L223.053 43.6074C221.614 44.8984 221.494 47.1113 222.784 48.5498C224.076 49.9893 226.289 50.1094 227.727 48.8184Z"
      fill="black" />
    <path
      d="M312.916 94.8359C313.876 94.8359 314.831 94.4434 315.522 93.6728C316.813 92.2344 316.693 90.0215 315.254 88.7305L290.101 66.1689C288.662 64.8789 286.45 64.999 285.158 66.4375C283.868 67.876 283.988 70.0889 285.427 71.3799L310.58 93.9414C311.249 94.541 312.084 94.8359 312.916 94.8359Z"
      fill="black" />
    <path
      d="M485.689 383.481C459.417 359.236 424.55 342.94 379.183 333.697V244C379.183 242.067 377.616 240.5 375.683 240.5C373.749 240.5 372.183 242.067 372.183 244V359.235C372.183 364.244 370.065 369.06 366.374 372.446L251.949 477.406C247.417 481.562 240.583 481.562 236.051 477.406L121.626 372.446C117.935 369.06 115.817 364.244 115.817 359.235V328.311C119.649 325.404 123.657 322.612 127.82 319.923V352.933C127.82 356.771 129.458 360.442 132.316 363.005L147.594 376.709C148.262 377.309 149.097 377.604 149.93 377.604C150.889 377.604 151.845 377.211 152.536 376.44C153.827 375.002 153.707 372.789 152.268 371.498L136.99 357.794C135.611 356.557 134.82 354.785 134.82 352.933V315.583C139.215 312.966 143.767 310.458 148.439 308.038V343.353C148.439 349.356 150.958 355.084 155.382 359.143L236.885 433.902C240.91 437.595 247.09 437.595 251.115 433.902L332.618 359.143C337.042 355.084 339.561 349.356 339.561 343.353V243.654C344.211 242.113 348.761 240.548 353.18 238.947V258.96C353.18 260.893 354.747 262.46 356.68 262.46C358.613 262.46 360.18 260.893 360.18 258.96V236.339C379.929 228.768 396.785 220.369 408.788 210.289C413.088 206.678 415.554 201.344 415.554 195.654V119.454C415.554 118.027 414.688 116.744 413.366 116.209C413.341 116.199 413.315 116.194 413.29 116.185C397.439 108.939 379.488 103.247 358.457 98.7939L256.68 5.43555C249.452 -1.19629 238.548 -1.19629 231.32 5.43555L153.592 76.7334C110.457 69.4702 81.3762 57.0215 62.1841 37.6055C60.4771 35.8799 57.9458 35.4082 55.7368 36.4043C53.5146 37.4053 52.1841 39.627 52.3476 42.0635C53.7148 62.46 59.7793 82.0029 70.3872 100.228C54.5 102.915 33.8818 101.09 7.59423 94.6885C5.00097 94.0557 2.40771 95.2148 1.14452 97.5713C-0.114757 99.9209 0.353993 102.713 2.31102 104.519C28.5831 128.764 63.4496 145.06 108.817 154.303V221.02C108.817 222.952 110.384 224.52 112.317 224.52C114.25 224.52 115.817 222.952 115.817 221.02V128.765C115.817 123.756 117.935 118.94 121.626 115.554L236.051 10.5937C240.583 6.4375 247.417 6.4375 251.949 10.5937L366.374 115.554C370.065 118.94 372.183 123.756 372.183 128.765V140.781C368.334 142.496 364.34 144.17 360.18 145.802V135.067C360.18 131.229 358.541 127.558 355.684 124.995L340.406 111.291C338.968 110.001 336.755 110.121 335.464 111.56C334.173 112.998 334.293 115.211 335.732 116.502L351.01 130.206C352.389 131.443 353.18 133.215 353.18 135.067V148.455C348.774 150.082 344.223 151.672 339.561 153.238V144.647C339.561 138.644 337.042 132.916 332.618 128.857L251.115 54.0976C247.09 50.4053 240.91 50.4053 236.885 54.0976L155.382 128.857C150.958 132.916 148.439 138.644 148.439 144.647V217.152C143.783 219.495 139.232 221.921 134.82 224.45V205.54C134.82 203.607 133.253 202.04 131.32 202.04C129.387 202.04 127.82 203.607 127.82 205.54V228.611C105.386 242.478 86.8562 259.178 74.9551 280.02C73.314 282.895 72.4463 286.183 72.4463 289.526V368.546C72.4463 369.981 73.322 371.247 74.6186 371.779C90.4835 379.039 108.464 384.743 129.543 389.206L231.32 482.564C234.935 485.881 239.466 487.538 244 487.538C248.532 487.538 253.066 485.88 256.68 482.564L334.409 411.266C377.544 418.53 406.625 430.98 425.816 450.395C426.929 451.52 428.391 452.111 429.887 452.111C430.686 452.111 431.494 451.942 432.263 451.596C434.485 450.595 435.816 448.373 435.652 445.937C434.285 425.54 428.221 405.997 417.613 387.772C433.498 385.083 454.118 386.91 480.406 393.312C483.003 393.945 485.593 392.785 486.855 390.429C488.115 388.079 487.646 385.287 485.689 383.481ZM25.2504 109.908C25.218 109.95 25.1856 109.992 25.1533 110.033C24.475 110.911 24.0751 111.912 23.9301 112.936C19.2866 109.685 14.8665 106.246 10.6719 102.607C17.2564 104.112 23.4849 105.313 29.3953 106.233C27.8237 107.184 26.411 108.412 25.2504 109.908ZM78.1218 73.7939C77.8986 73.8696 77.6758 73.9463 77.4534 74.0229C73.3575 75.439 70.4678 78.6841 69.2651 82.4829C64.054 70.4028 60.8068 57.8203 59.5942 44.8643C70.4916 55.187 84.1163 63.5381 101.073 70.1772C93.3101 70.0947 85.5524 71.269 78.1218 73.7939ZM371.105 110.396L368.909 108.38C376.104 110.179 382.907 112.149 389.361 114.309C384.867 115.549 380.878 118.43 378.4 122.603C377.209 117.954 374.695 113.688 371.105 110.396ZM79.4463 289.526C79.4463 287.397 79.9956 285.31 81.0342 283.49C114.116 225.557 202.844 200.342 281.127 178.096C332.973 163.362 382.158 149.386 408.554 127.443V195.654C408.554 199.271 406.999 202.65 404.286 204.928C379.231 225.97 330.649 239.776 279.214 254.393C202.79 276.111 116.788 300.548 79.4463 355.836L79.4463 289.526ZM108.817 352.146C106.857 350.634 104.28 349.919 101.615 350.466C99.4061 350.919 97.2572 351.495 95.1797 352.183C92.801 352.971 90.5461 354.04 88.4254 355.314C94.227 347.576 101.089 340.475 108.817 333.925L108.817 352.146ZM363.921 392.732C363.693 393.006 363.466 393.28 363.241 393.556C359.174 398.535 359.274 405.17 362.426 410.004C355.672 408.258 348.51 406.692 340.913 405.3L371.106 377.604C376.239 372.896 379.183 366.2 379.183 359.235V340.837C408.186 346.87 432.683 355.865 453.219 368.063C422.103 357.489 386.331 365.862 363.921 392.732Z"
      fill="black" />
    <path
      d="M356.68 328.91C354.747 328.91 353.18 330.478 353.18 332.41V352.933C353.18 354.785 352.389 356.557 351.01 357.794L335.732 371.498C334.293 372.789 334.173 375.002 335.464 376.44C336.155 377.211 337.111 377.604 338.07 377.604C338.903 377.604 339.738 377.309 340.406 376.709L355.684 363.005C358.542 360.442 360.18 356.771 360.18 352.933V332.41C360.18 330.478 358.613 328.91 356.68 328.91Z"
      fill="black" />
    <path
      d="M310.58 394.059L285.426 416.62C283.987 417.911 283.867 420.124 285.158 421.562C285.849 422.333 286.805 422.726 287.764 422.726C288.597 422.726 289.432 422.431 290.1 421.831L315.253 399.27C316.692 397.979 316.812 395.766 315.522 394.327C314.231 392.889 312.018 392.768 310.58 394.059Z"
      fill="black" />
    <path
      d="M260.273 439.182L248.36 449.867C245.874 452.098 242.126 452.098 239.64 449.867L227.727 439.182C226.288 437.892 224.076 438.012 222.784 439.45C221.494 440.889 221.614 443.102 223.053 444.393L234.966 455.078C237.541 457.389 240.77 458.543 244 458.543C247.229 458.543 250.459 457.388 253.034 455.078L264.947 444.393C266.386 443.102 266.506 440.889 265.216 439.45C263.925 438.012 261.712 437.892 260.273 439.182Z"
      fill="black" />
    <path
      d="M172.478 394.327C171.187 395.766 171.307 397.979 172.746 399.27L197.899 421.831C198.568 422.431 199.403 422.726 200.235 422.726C201.195 422.726 202.15 422.333 202.842 421.562C204.132 420.124 204.012 417.911 202.573 416.62L177.42 394.059C175.981 392.768 173.77 392.889 172.478 394.327Z"
      fill="black" />
  </g>
</svg>
